#!OML:ASF F:\VICON\USERDATA\INSTALL\rory3\rory3.ASF
:FULLY-SPECIFIED
:DEGREES
121
root 0.938889 17.8653 -15.7506 6.67641 -3.45568 0.488189
lowerback 5.77439 -0.35015 -1.73044
upperback 0.101319 -0.504664 2.42197
thorax -3.09825 -0.208849 3.51939
lowerneck -15.6233 -3.49339 -10.2357
upperneck 29.0048 -3.31731 4.04432
head 12.4663 -2.08997 2.78689
rclavicle 2.88238e-015 1.51076e-014
rhumerus -32.6832 -10.1575 -78.5434
rradius 33.3381
rwrist 2.86134
rhand -12.1878 15.6075
rfingers 7.12502
rthumb 13.8761 -13.9096
lclavicle 2.88238e-015 1.51076e-014
lhumerus -32.5348 9.9427 85.1142
lradius 32.616
lwrist -5.72366
lhand -12.9834 28.8458
lfingers 7.12502
lthumb 13.1092 58.4137
rfemur -12.0745 5.73204 21.348
rtibia 20.4854
rfoot -9.27512 -10.075
rtoes 3.58181
lfemur -12.7739 -3.42615 -21.7131
ltibia 19.9349
lfoot -10.4631 6.06657
ltoes 0.729299
122
root 0.941126 17.8645 -15.7457 6.68902 -3.43903 0.594599
lowerback 5.78238 -0.375465 -1.84681
upperback 0.0682963 -0.545841 2.42379
thorax -3.13282 -0.226648 3.59108
lowerneck -15.798 -3.53808 -10.3384
upperneck 29.2893 -3.37038 4.15022
head 12.6276 -2.11609 2.84099
rclavicle -6.55989e-015 1.51076e-014
rhumerus -32.7493 -10.0064 -78.5606
rradius 33.4665
rwrist 2.71997
rhand -12.0261 16.1045
rfingers 7.12502
rthumb 14.0318 -13.4019
lclavicle -6.55989e-015 1.51076e-014
lhumerus -32.5703 9.34963 85.4971
lradius 32.038
lwrist -2.43
lhand -17.7974 25.0944
lfingers 7.12502
lthumb 8.46583 54.9047
rfemur -12.0902 5.68946 21.2237
rtibia 20.4857
rfoot -9.22577 -10.0451
rtoes 3.53962
lfemur -12.766 -3.46664 -21.8348
ltibia 19.8899
lfoot -10.4353 6.07644
ltoes 0.631819
123
root 0.943154 17.8646 -15.7407 6.6342 -3.437 0.595728
lowerback 5.91728 -0.391681 -1.85736
upperback -0.0030407 -0.567866 2.44227
thorax -3.28049 -0.234035 3.62102
lowerneck -15.855 -3.59667 -10.444
upperneck 29.5805 -3.47139 4.29841
head 12.7732 -2.15971 2.90582
rclavicle 4.27387e-015 1.59028e-015
rhumerus -32.8853 -10.016 -78.5106
rradius 33.4579
rwrist 2.82054
rhand -11.7894 15.9476
rfingers 7.12502
rthumb 14.26 -13.5428
lclavicle 4.27387e-015 1.59028e-015
lhumerus -32.7613 10.2967 84.8502
lradius 32.6512
lwrist -7.02499
lhand -10.9375 30.0705
lfingers 7.12502
lthumb 15.0807 59.5012
rfemur -12.0375 5.69748 21.2214
rtibia 20.5273
rfoot -9.22142 -10.0683
rtoes 3.63335
lfemur -12.6517 -3.49944 -21.8438
ltibia 19.8267
lfoot -10.372 6.05589
ltoes 0.913614
124
root 0.944793 17.8658 -15.7336 6.64949 -3.44258 0.580085
lowerback 5.91622 -0.406144 -1.86284
upperback -0.073958 -0.585702 2.47513
thorax -3.35161 -0.240514 3.66075
lowerneck -15.6127 -3.56103 -10.4822
upperneck 29.5661 -3.44709 4.32761
head 12.7154 -2.15194 2.92899
rclavicle -1.98785e-015 -1.19271e-014
rhumerus -33.1147 -9.85263 -78.5028
rradius 33.5812
rwrist 2.77137
rhand -11.6097 15.9918
rfingers 7.12502
rthumb 14.4331 -13.4863
lclavicle -1.98785e-015 -1.19271e-014
lhumerus -32.9511 9.47986 85.3436
lradius 32.1151
lwrist -2.85625
lhand -17.1667 25.3936
lfingers 7.12502
lthumb 9.07448 55.1783
rfemur -12.0439 5.70255 21.2253
rtibia 20.5763
rfoot -9.33278 -10.0784
rtoes 3.94474
lfemur -12.5959 -3.36355 -21.8451
ltibia 19.774
lfoot -10.322 5.90004
ltoes 1.01699
125
root 0.945319 17.8649 -15.7287 6.7091 -3.50917 0.632441
lowerback 5.87994 -0.378622 -1.9482
upperback -0.123769 -0.554418 2.46646
thorax -3.38457 -0.222365 3.69747
lowerneck -15.4964 -3.55322 -10.4728
upperneck 29.5717 -3.46491 4.36499
head 12.6949 -2.15535 2.94009
rclavicle 4.47266e-015 -2.8625e-014
rhumerus -33.3076 -9.76662 -78.5354
rradius 33.7526
rwrist 2.64258
rhand -11.5622 16.2394
rfingers 7.12502
rthumb 14.4789 -13.2355
lclavicle 4.47266e-015 -2.8625e-014
lhumerus -33.078 10.17 84.8026
lradius 32.8386
lwrist -7.2148
lhand -10.9018 30.1677
lfingers 7.12502
lthumb 15.1151 59.5957
rfemur -12.1025 5.71993 21.1551
rtibia 20.5894
rfoot -9.33679 -10.08
rtoes 3.91107
lfemur -12.6163 -3.24352 -21.9126
ltibia 19.7519
lfoot -10.3114 5.7968
ltoes 1.25336
126
root 0.946853 17.8637 -15.7262 6.77457 -3.56753 0.636328
lowerback 5.87829 -0.354923 -1.96616
upperback -0.130773 -0.523927 2.46781
thorax -3.39313 -0.206626 3.70651
lowerneck -15.6248 -3.56473 -10.4622
upperneck 29.6404 -3.48135 4.39786
head 12.7517 -2.15731 2.94907
rclavicle 1.99779e-014 1.35174e-014
rhumerus -33.3125 -9.70918 -78.585
rradius 33.874
rwrist 2.4669
rhand -11.5433 16.0166
rfingers 7.12502
rthumb 14.4971 -13.457
lclavicle 1.99779e-014 1.35174e-014
lhumerus -32.9864 9.21974 85.3653
lradius 31.9828
lwrist -2.38715
lhand -17.4788 23.9535
lfingers 7.12502
lthumb 8.77329 53.7512
rfemur -12.1845 5.75677 21.1354
rtibia 20.6105
rfoot -9.32033 -10.0553
rtoes 3.94584
lfemur -12.665 -3.16394 -21.9317
ltibia 19.7205
lfoot -10.2927 5.80293
ltoes 0.79763
127
root 0.950624 17.8646 -15.7214 6.79636 -3.5932 0.658922
lowerback 5.84374 -0.367991 -2.01097
upperback -0.124013 -0.542959 2.50511
thorax -3.36452 -0.215614 3.77183
lowerneck -15.5643 -3.53972 -10.4943
upperneck 29.5895 -3.43025 4.36175
head 12.7139 -2.14254 2.94789
rclavicle -7.95139e-016 -3.97569e-015
rhumerus -33.2814 -9.53849 -78.5987
rradius 33.9481
rwrist 2.41551
rhand -11.6126 15.605
rfingers 7.12502
rthumb 14.4303 -13.8733
lclavicle -7.95139e-016 -3.97569e-015
lhumerus -32.8391 10.0945 84.8812
lradius 32.4941
lwrist -6.81237
lhand -10.8975 29.2881
lfingers 7.12502
lthumb 15.1192 58.7158
rfemur -12.2044 5.7434 21.0902
rtibia 20.6204
rfoot -9.35103 -10.0106
rtoes 4.21395
lfemur -12.6694 -3.17274 -21.9784
ltibia 19.7127
lfoot -10.386 5.9019
ltoes 0.501202
128
root 0.955589 17.8648 -15.7155 6.81565 -3.64971 0.662259
lowerback 5.87868 -0.375185 -2.02361
upperback -0.198462 -0.551747 2.54217
thorax -3.4602 -0.216813 3.81988
lowerneck -15.3775 -3.4944 -10.5674
upperneck 29.5923 -3.36674 4.36413
head 12.672 -2.12464 2.97255
rclavicle -1.68967e-015 7.15625e-015
rhumerus -33.4701 -9.30957 -78.5905
rradius 34.095
rwrist 2.33517
rhand -11.5632 15.2551
rfingers 7.12502
rthumb 14.4779 -14.2198
lclavicle -1.68967e-015 7.15625e-015
lhumerus -32.8885 9.18489 85.4858
lradius 31.6399
lwrist -2.11259
lhand -17.9179 23.4658
lfingers 7.12502
lthumb 8.34956 53.2808
rfemur -12.2216 5.71735 21.0616
rtibia 20.6188
rfoot -9.38113 -9.92168
rtoes 3.97107
lfemur -12.6836 -3.15435 -22.0059
ltibia 19.7348
lfoot -10.4965 5.98473
ltoes 0.484421
129
root 0.95786 17.8634 -15.7142 6.83827 -3.70279 0.561911
lowerback 6.0324 -0.340678 -1.91564
upperback -0.275689 -0.497866 2.56079
thorax -3.63182 -0.187835 3.77671
lowerneck -15.3034 -3.51477 -10.5841
upperneck 29.622 -3.42076 4.42512
head 12.6748 -2.14407 2.9918
rclavicle -2.98177e-016 -1.82882e-014
rhumerus -33.7019 -9.30723 -78.5887
rradius 34.3185
rwrist 2.28978
rhand -11.4549 15.0512
rfingers 7.12502
rthumb 14.5822 -14.4162
lclavicle -2.98177e-016 -1.82882e-014
lhumerus -32.994 9.74855 85.0261
lradius 32.3363
lwrist -5.82677
lhand -11.981 28.5559
lfingers 7.12502
lthumb 14.0753 58.0593
rfemur -12.2749 5.81876 21.1572
rtibia 20.6355
rfoot -9.33046 -9.9521
rtoes 3.44303
lfemur -12.7189 -3.18778 -21.8947
ltibia 19.7363
lfoot -10.4874 6.04409
ltoes 0.839563
130
root 0.960944 17.8605 -15.7143 6.83851 -3.76551 0.523478
lowerback 6.13483 -0.297398 -1.87378
upperback -0.26046 -0.43761 2.5717
thorax -3.67868 -0.157958 3.76027
lowerneck -15.3223 -3.56054 -10.5822
upperneck 29.5505 -3.49995 4.4757
head 12.6575 -2.17038 2.99723
rclavicle -9.24349e-015 7.95139e-016
rhumerus -33.7334 -9.31282 -78.6224
rradius 34.4968
rwrist 2.23439
rhand -11.5784 14.9581
rfingers 7.12502
rthumb 14.4633 -14.5179
lclavicle -9.24349e-015 7.95139e-016
lhumerus -32.9839 9.09451 85.4058
lradius 32.0076
lwrist -2.87956
lhand -15.9801 25.2327
lfingers 7.12502
lthumb 10.2193 54.9645
rfemur -12.3054 5.82566 21.1816
rtibia 20.6605
rfoot -9.3112 -9.88455
rtoes 2.99886
lfemur -12.7348 -3.16415 -21.8726
ltibia 19.7523
lfoot -10.4513 6.08561
ltoes 0.418426
131
root 0.964912 17.8587 -15.7093 6.8459 -3.78183 0.643009
lowerback 6.05469 -0.285536 -1.96631
upperback -0.193117 -0.429539 2.54579
thorax -3.56393 -0.155259 3.783
lowerneck -15.3384 -3.58549 -10.603
upperneck 29.4673 -3.5351 4.50481
head 12.6312 -2.18228 3.00484
rclavicle 1.98785e-016 -2.14687e-014
rhumerus -33.6375 -9.31881 -78.6625
rradius 34.535
rwrist 2.29755
rhand -11.9034 15.2387
rfingers 7.12502
rthumb 14.1501 -14.2594
lclavicle 1.98785e-016 -2.14687e-014
lhumerus -32.9522 8.81963 85.5803
lradius 31.9753
lwrist -1.78078
lhand -17.2832 24.13
lfingers 7.12502
lthumb 8.9621 53.9197
rfemur -12.3014 5.72515 21.035
rtibia 20.6565
rfoot -9.28565 -9.80865
rtoes 2.94212
lfemur -12.7401 -3.20034 -22.0273
ltibia 19.8063
lfoot -10.5207 6.15658
ltoes 0.169845
